<?xml version="1.0"?>
<svg xmlns="http://www.w3.org/2000/svg" width="436.99828" height="387.34999" viewBox="0 0 43.699828 38.734999">
<g transform="translate(-77.44443,-303.82624) matrix(0.26458333,0,0,0.26458333,5.8979169,219.76812)" style="fill:#000000">
 <path d="m 311.1,370.1 c -25.6,24.3 -41,43.8 -39.6,54.8 1,7.8 7.6,11.8 19.5,11.8 10.9,0 22.3,-3.5 22.4,-3.5 l 34.5,-9.1 V 318.7 l -7.2,1.9 -16.4,83.2 -7.2,1.9 c -0.1,0 -3.4,1 -6.8,1 -5.4,0 -7.2,-2.5 -7.7,-4.6 -1.6,-6.4 8.6,-21.9 15.6,-33.9 z" />
 <path d="m 394.8,411.7 c 25.7,-24.4 41,-43.8 39.7,-54.8 -1,-7.8 -7.6,-11.8 -19.5,-11.8 -10.9,0 -22.3,3.5 -22.4,3.5 l -34.5,9.1 v 105.4 l 7.2,-1.9 16.4,-83.1 7.2,-1.9 c 0.1,0 3.4,-1 6.8,-1 5.4,0 7.2,2.5 7.7,4.6 1.7,6.4 -8.6,21.8 -15.7,33.8 z" />
</g>
</svg>